<?xml version="1.0" encoding="UTF-8"?>
<svg id="Lag_2" data-name="Lag 2" xmlns="http://www.w3.org/2000/svg" viewBox="0 0 2869.05 2589.34">
  <defs>
    <style>
      .cls-1 {
        fill: #fff;
      }
    </style>
  </defs>
  <path class="cls-1" d="M0,1190.52c50.09,8.26,139.99-27.99,145.79,47.66,43.78-48.7,157.11-80.14,201.18-20.14,5.41,7.37,18.47,36.65,18.47,43.99v276.9h-147.65v-221.89c0-29.68-70.13-21.89-70.13-14.67v236.56H0v-348.42Z"/>
  <path class="cls-1" d="M2253.53,1076.82c47.12,5.18,47.31,30.09,49.99,71.36,3.29,50.72-2.79,104.94-.12,156.03l90.4-113.69h119.97l-84.11,144.25,98.87,204.17h-147.65l-59.12-113.68c-5.12-1.03-4.7-.75-7.63,2.34-1.03,1.09-10.77,13.27-10.77,14.15v97.19h-151.34v-456.62c0-.39,5.15-5.5,5.54-5.5,29.53,0,67.81-3.1,95.97,0Z"/>
  <path class="cls-1" d="M2849.67,1205.19v88.02c-37.84-4.25-78.11-17.53-116.16-18.52-13.62-.35-52.49.81-40.77,22.24,6.63,12.14,73.14,15.96,90.61,19.99,44.49,10.27,78.7,33.05,84.38,81.21,19.99,169.43-192.24,167.45-302.29,122.47v-88.02c40.73,2.28,126.16,35.07,162.3,16.39,7.83-4.05,11.23-15.82,3.82-21.93-8.39-6.92-58.99-11.05-73.97-14.51-57.32-13.22-93.2-35.07-95.98-98.99-6.48-149.2,188.44-140.58,288.05-108.35Z"/>
  <path class="cls-1" d="M1127.69,1190.52c21.95,3.86,33.15,31.13,31.41,51.35,31.66-38.76,65.82-58.02,118.09-51.35v121.03c-38.49-1.6-76.89,2.94-114.43,11v216.39h-147.65v-342.92c0-.39,5.15-5.5,5.54-5.5,29.11,0,81.4-4.51,107.05,0Z"/>
  <path class="cls-1" d="M937.5,1236.46c-42.53-52-133.9-59.7-194.74-43.29-12.78,3.45-42.5,20.17-50.43,19.41-6.71-.65-30.89-17.47-45.52-21.04-27.76-6.77-76.98-6.9-105.97-4.62-14.3,1.13-105.26,17.61-105.26,31.12v84.36c0,7.36,35.48,6.48,42.54,5.59,12.78-1.6,20.48-9.12,32.02-12.2,35.5-9.45,109.36-19.43,98.93,37.78h-90.44c-12.72,0-56.57,16.01-68.05,24.07-40.39,28.34-48.38,88.68-29.29,131.33,35.57,79.48,184.59,69.55,233.92,6.03,76.57,75.3,213.81,58.9,304.53,18.28v-80.69c-15.5,1.66-34.78-2.44-49.63.2-14.32,2.55-32.59,15.46-52.28,17.74-44,5.1-94.97,3.7-97.42-50.95h208.56c.39,0,5.54-5.11,5.54-5.5v-62.35c0-23.45-21.57-76.39-37-95.27ZM604.22,1458.93c-27.07,11.75-54.4,5.04-54.58-28.17-.2-37.15,36.51-31.82,63.09-31.17-3.47,29.57,28.03,43.49-8.51,59.34ZM756.71,1333.56c3.65-77.87,83.22-80.82,81.21,0h-81.21Z"/>
  <path class="cls-1" d="M1682.95,1284.32c-28.37-109.65-138.56-126.5-221.17-60.79-2.68-29.97,9.48-127.49-23.12-140.27-5.13-2.01-24.66-5.86-30.44-6.43-27.78-2.74-63.42,0-92.28,0-.39,0-5.54,5.11-5.54,5.5v456.62h101.51c7.23,0,27.39-23.79,27.75-32.99,5.7-3.77,19.82,15.68,26.01,19.92,43.74,29.93,119.59,27.39,161.85-3.76,65.54-48.31,74.27-164.95,55.42-237.8ZM1496.4,1454.34c-6.85.76-34.65-1.91-34.65-8.93v-148.54c45.99-11.89,74.03.37,77.67,49.36,2.58,34.76,3.9,102.93-43.02,108.11Z"/>
  <path class="cls-1" d="M1878.05,1187.88c-111.26,13.27-173.25,113.64-153.27,219.92,36.45,193.88,369.63,181.67,386.76-13.59,12.87-146.67-93.47-223.03-233.5-206.33ZM2008.21,1430.91c-.48,5.69-.64,15.1-4.72,19.15-4.08,4.05-13.54,4.21-19.27,4.69-32.37,2.7-109.72,4.04-140.6.02-14.97-1.95-15.32-6.45-16.65-20.13-2.93-29.95-3.86-111.03.03-139.76,1.29-9.56,5.06-15.4,14.77-18.33,15.12-4.57,122.39-4.06,142.36-1.73,10.23,1.2,18.88,4.03,22.3,14.52,4.99,15.33,3.61,119.87,1.78,141.58Z"/>
</svg>